<svg width="24" height="24" viewBox="0 0 24 24" fill="none" xmlns="http://www.w3.org/2000/svg">
<path d="M16.6205 2.99028C16.5044 2.87387 16.3664 2.78152 16.2146 2.7185C16.0627 2.65548 15.8999 2.62305 15.7355 2.62305C15.5711 2.62305 15.4083 2.65548 15.2564 2.7185C15.1045 2.78152 14.9666 2.87387 14.8505 2.99028L6.54049 11.3003C6.44779 11.3928 6.37424 11.5027 6.32406 11.6237C6.27388 11.7446 6.24805 11.8743 6.24805 12.0053C6.24805 12.1362 6.27388 12.2659 6.32406 12.3869C6.37424 12.5079 6.44779 12.6178 6.54049 12.7103L14.8505 21.0203C15.3405 21.5103 16.1305 21.5103 16.6205 21.0203C17.1105 20.5303 17.1105 19.7403 16.6205 19.2503L9.38049 12.0003L16.6305 4.75028C17.1105 4.27028 17.1105 3.47028 16.6205 2.99028Z" fill="black"/>
</svg>
