<svg width="336" height="56" viewBox="0 0 336 56" fill="none" xmlns="http://www.w3.org/2000/svg">
<rect width="336" height="56" rx="15" fill="white"/>
<path d="M94.22 19.84H105.84V21.94H94.22V19.84ZM92.32 27.72H109.06V29.86H92.32V27.72ZM99.26 29.22H101.94V37.3H99.26V29.22ZM104.48 19.84H107.1V21.48C107.1 23.48 107.1 25.72 106.38 29L103.76 28.7C104.48 25.6 104.48 23.4 104.48 21.48V19.84ZM124.078 18.76H126.618V37.28H124.078V18.76ZM121.858 25.82H124.918V27.96H121.858V25.82ZM120.018 19.04H122.518V36.44H120.018V19.04ZM111.218 20.66H118.538V32.66H111.218V20.66ZM116.058 22.74H113.698V30.58H116.058V22.74ZM133.257 21.68H135.357V23.76C135.357 27.94 133.597 32.2 130.197 33.8L128.697 31.7C131.757 30.26 133.257 26.8 133.257 23.76V21.68ZM133.817 21.68H135.917V23.76C135.917 26.56 137.357 29.84 140.397 31.24L138.937 33.34C135.537 31.76 133.817 27.7 133.817 23.76V21.68ZM129.417 20.54H139.577V22.72H129.417V20.54ZM140.937 18.76H143.617V37.28H140.937V18.76ZM143.017 25.82H146.297V28.02H143.017V25.82ZM147.515 33.08H164.275V35.24H147.515V33.08ZM154.535 29.58H157.195V33.96H154.535V29.58ZM149.395 19.96H162.395V26.12H152.075V29.24H149.435V24.04H159.755V22.06H149.395V19.96ZM149.435 28.18H162.815V30.32H149.435V28.18ZM175.609 20.18H177.769V22.88C177.769 27.64 176.129 31.94 172.449 33.64L170.869 31.44C174.089 30.04 175.609 26.48 175.609 22.88V20.18ZM176.129 20.18H178.289V22.88C178.289 26.3 179.749 29.7 182.909 31.06L181.349 33.2C177.769 31.56 176.129 27.44 176.129 22.88V20.18ZM183.789 18.74H186.469V37.32H183.789V18.74ZM193.608 20.66H195.788V21.82C195.788 25.32 194.128 28.46 190.588 29.6L189.208 27.54C192.308 26.54 193.608 24.14 193.608 21.82V20.66ZM194.148 20.66H196.308V21.82C196.308 24 197.568 26.26 200.568 27.22L199.208 29.28C195.748 28.16 194.148 25.14 194.148 21.82V20.66ZM189.928 19.84H199.928V21.96H189.928V19.84ZM201.408 18.76H204.068V29.92H201.408V18.76ZM203.328 23.24H206.528V25.42H203.328V23.24ZM191.708 30.72H204.068V37.28H201.408V32.86H191.708V30.72ZM219.766 18.76H222.406V37.28H219.766V18.76ZM221.806 25.98H225.086V28.2H221.806V25.98ZM207.806 21.5H218.586V23.62H207.806V21.5ZM213.226 24.66C215.926 24.66 217.926 26.5 217.926 29.08C217.926 31.66 215.926 33.5 213.226 33.5C210.526 33.5 208.526 31.66 208.526 29.08C208.526 26.5 210.526 24.66 213.226 24.66ZM213.226 26.82C211.966 26.82 211.066 27.66 211.066 29.08C211.066 30.5 211.966 31.34 213.226 31.34C214.486 31.34 215.386 30.5 215.386 29.08C215.386 27.66 214.486 26.82 213.226 26.82ZM211.886 19.06H214.546V22.3H211.886V19.06ZM239.044 18.76H241.724V37.28H239.044V18.76ZM233.584 20.68H236.224C236.224 26.34 234.304 30.98 227.724 34.16L226.344 32.04C231.664 29.48 233.584 26.12 233.584 21.16V20.68ZM227.324 20.68H234.844V22.78H227.324V20.68Z" fill="#D94844"/>
</svg>
