<svg width="312" height="124" viewBox="0 0 312 124" fill="none" xmlns="http://www.w3.org/2000/svg">
<path d="M0.66 36.12H3.42C8.22 36.12 11.22 36.06 14.82 35.22L15.6 41.7C11.76 42.54 8.64 42.6 3.42 42.6H0.66V36.12ZM0.66 5.88H14.94V12.24H8.52V38.88H0.66V5.88ZM17.52 36.12H20.64C26.94 36.12 30.3 36 34.26 35.1L34.86 41.52C30.72 42.54 27.3 42.6 20.64 42.6H17.52V36.12ZM17.52 5.88H32.64V12.24H25.44V39.06H17.52V5.88ZM38.58 0.779999H46.56V56.34H38.58V0.779999ZM30.36 20.04H41.22V26.58H30.36V20.04ZM92.8753 0.719996H100.855V56.46H92.8753V0.719996ZM57.5953 37.02H62.5153C72.3553 37.02 80.2153 36.66 89.0353 35.16L89.8153 41.58C80.8153 43.2 72.6553 43.5 62.5153 43.5H57.5953V37.02ZM57.5353 5.46H83.7553V26.94H65.6953V39.42H57.5953V20.64H75.5953V11.82H57.5353V5.46ZM124.251 29.28H132.231V41.46H124.251V29.28ZM148.611 0.779999H156.591V42.84H148.611V0.779999ZM116.571 49.02H157.791V55.38H116.571V49.02ZM116.571 38.88H124.551V50.7H116.571V38.88ZM110.571 31.68L109.611 25.32C119.751 25.32 133.311 25.2 144.951 23.7L145.431 29.4C133.611 31.38 120.591 31.68 110.571 31.68ZM138.111 33.06H150.351V38.52H138.111V33.06ZM127.491 2.7C135.591 2.7 141.291 6.72 141.291 12.6C141.291 18.54 135.591 22.5 127.491 22.5C119.331 22.5 113.631 18.54 113.631 12.6C113.631 6.72 119.331 2.7 127.491 2.7ZM127.491 8.52C123.771 8.52 121.191 9.9 121.191 12.6C121.191 15.3 123.771 16.68 127.491 16.68C131.151 16.68 133.731 15.3 133.731 12.6C133.731 9.9 131.151 8.52 127.491 8.52ZM0.271484 115.973C0.271484 114.638 0.613281 113.702 1.29688 113.165C1.99674 112.612 2.8431 112.335 3.83594 112.335C4.82878 112.335 5.67513 112.612 6.375 113.165C7.09115 113.702 7.44922 114.638 7.44922 115.973C7.44922 117.275 7.09115 118.219 6.375 118.805C5.67513 119.374 4.82878 119.659 3.83594 119.659C2.8431 119.659 1.99674 119.374 1.29688 118.805C0.613281 118.219 0.271484 117.275 0.271484 115.973ZM0.271484 95.0742C0.271484 93.7233 0.613281 92.7712 1.29688 92.2178C1.99674 91.6644 2.8431 91.3877 3.83594 91.3877C4.82878 91.3877 5.67513 91.6644 6.375 92.2178C7.09115 92.7712 7.44922 93.7233 7.44922 95.0742C7.44922 96.36 7.09115 97.2959 6.375 97.8818C5.67513 98.4515 4.82878 98.7363 3.83594 98.7363C2.8431 98.7363 1.99674 98.4515 1.29688 97.8818C0.613281 97.2959 0.271484 96.36 0.271484 95.0742ZM26.359 94.45H28.709C32.509 94.45 35.359 94.35 38.909 93.65L39.409 98.8C35.609 99.5 32.709 99.55 28.709 99.55H26.359V94.45ZM26.359 79.35H38.459V84.5H32.909V97.85H26.359V79.35ZM40.709 94.45H43.209C49.059 94.45 51.609 94.35 54.659 93.6L55.159 98.75C51.959 99.5 49.309 99.55 43.209 99.55H40.709V94.45ZM40.709 79.35H53.559V84.5H47.209V97.85H40.709V79.35ZM32.559 102.5H64.909V114.95H39.359V120.3H32.609V110.2H58.259V107.6H32.559V102.5ZM32.609 117.8H66.209V122.95H32.609V117.8ZM58.309 77.15H64.909V100.65H58.309V77.15ZM51.809 86.6H63.559V91.5H51.809V86.6ZM103.455 77.1H110.155V123.55H103.455V77.1ZM85.2051 80.35C92.2051 80.35 97.3551 86.75 97.3551 96.85C97.3551 107.05 92.2051 113.45 85.2051 113.45C78.2051 113.45 73.0551 107.05 73.0551 96.85C73.0551 86.75 78.2051 80.35 85.2051 80.35ZM85.2051 86.4C81.7551 86.4 79.4051 90.05 79.4051 96.85C79.4051 103.75 81.7551 107.45 85.2051 107.45C88.6551 107.45 90.9551 103.75 90.9551 96.85C90.9551 90.05 88.6551 86.4 85.2051 86.4ZM117.701 97.9H159.651V102.75H117.701V97.9ZM122.401 105.05H154.651V116.05H129.101V120H122.501V111.85H148.101V109.55H122.401V105.05ZM122.501 118.6H155.951V123.1H122.501V118.6ZM122.851 77.95H154.551V88.85H129.501V92.65H122.901V84.7H148.001V82.4H122.851V77.95ZM122.901 91.25H155.401V95.75H122.901V91.25ZM188.736 100.9H195.386V111.05H188.736V100.9ZM209.036 77.15H215.686V112.2H209.036V77.15ZM182.336 117.35H216.686V122.65H182.336V117.35ZM182.336 108.9H188.986V118.75H182.336V108.9ZM177.336 102.9L176.536 97.6C184.986 97.6 196.286 97.5 205.986 96.25L206.386 101C196.536 102.65 185.686 102.9 177.336 102.9ZM200.286 104.05H210.486V108.6H200.286V104.05ZM191.436 78.75C198.186 78.75 202.936 82.1 202.936 87C202.936 91.95 198.186 95.25 191.436 95.25C184.636 95.25 179.886 91.95 179.886 87C179.886 82.1 184.636 78.75 191.436 78.75ZM191.436 83.6C188.336 83.6 186.186 84.75 186.186 87C186.186 89.25 188.336 90.4 191.436 90.4C194.486 90.4 196.636 89.25 196.636 87C196.636 84.75 194.486 83.6 191.436 83.6ZM252.382 77.15H258.982V123.45H252.382V77.15ZM257.482 95.2H265.682V100.75H257.482V95.2ZM222.482 84H249.432V89.3H222.482V84ZM236.032 91.9C242.782 91.9 247.782 96.5 247.782 102.95C247.782 109.4 242.782 114 236.032 114C229.282 114 224.282 109.4 224.282 102.95C224.282 96.5 229.282 91.9 236.032 91.9ZM236.032 97.3C232.882 97.3 230.632 99.4 230.632 102.95C230.632 106.5 232.882 108.6 236.032 108.6C239.182 108.6 241.432 106.5 241.432 102.95C241.432 99.4 239.182 97.3 236.032 97.3ZM232.682 77.9H239.332V86H232.682V77.9ZM298.278 77.1H304.978V123.55H298.278V77.1ZM303.478 94.25H311.678V99.7H303.478V94.25ZM270.478 106.9H274.378C282.178 106.9 288.328 106.65 295.128 105.45L295.778 110.95C288.778 112.2 282.428 112.4 274.378 112.4H270.478V106.9ZM270.478 81.4H292.078V86.75H277.078V109.55H270.478V81.4Z" fill="white"/>
</svg>
