<?xml version="1.0" standalone="no"?>
<!DOCTYPE svg PUBLIC "-//W3C//DTD SVG 20010904//EN"
 "http://www.w3.org/TR/2001/REC-SVG-20010904/DTD/svg10.dtd">
<svg version="1.0" xmlns="http://www.w3.org/2000/svg"
 width="207.000000pt" height="229.000000pt" viewBox="0 0 207.000000 229.000000"
 preserveAspectRatio="xMidYMid meet">

<g transform="translate(0.000000,229.000000) scale(0.100000,-0.100000)"
fill="#000000" stroke="none">
<path d="M960 2150 c-86 -22 -185 -101 -225 -180 -13 -26 -29 -74 -36 -108
l-13 -62 -147 0 c-144 0 -148 -1 -178 -26 -19 -15 -32 -38 -35 -57 -2 -18 -12
-86 -20 -152 -9 -66 -25 -181 -36 -255 -29 -203 -58 -409 -81 -565 -10 -77
-24 -168 -29 -201 -19 -118 -10 -153 44 -174 17 -6 151 -10 349 -10 l322 0 58
-104 c44 -80 64 -107 88 -116 49 -21 71 -2 139 114 l61 105 339 3 c333 3 340
3 361 25 26 26 27 74 4 226 -9 56 -20 136 -25 177 -5 41 -16 120 -25 175 -17
113 -43 298 -75 520 -38 270 -37 268 -65 293 -25 21 -35 22 -181 22 l-154 0 0
39 c0 39 -33 131 -60 166 -72 94 -167 147 -273 151 -40 2 -88 -1 -107 -6z
m163 -174 c58 -24 132 -133 112 -166 -4 -6 -76 -10 -192 -10 l-186 0 6 36 c19
113 152 185 260 140z m88 -349 c83 -40 141 -96 185 -179 38 -71 39 -76 39
-173 0 -80 -5 -113 -24 -165 -36 -100 -152 -323 -247 -476 -95 -151 -113 -176
-124 -169 -12 8 -100 143 -100 154 0 5 -4 11 -8 13 -4 2 -33 46 -64 98 -196
332 -247 498 -202 650 34 116 126 214 243 261 36 15 67 19 146 16 86 -2 108
-6 156 -30z"/>
<path d="M952 1449 c-143 -71 -138 -284 9 -359 138 -71 314 61 285 213 -25
132 -173 206 -294 146z"/>
</g>
</svg>
