<svg width="349" height="52" viewBox="0 0 349 52" fill="none" xmlns="http://www.w3.org/2000/svg">
<path d="M65.6994 12.608H85.3794V14.24H65.6994V12.608ZM74.4834 13.616H76.4514V21.872H74.4834V13.616ZM75.4914 1.04C80.0274 1.04 83.0754 2.888 83.0754 5.792C83.0754 8.696 80.0274 10.544 75.4914 10.544C70.9794 10.544 67.9074 8.696 67.9074 5.792C67.9074 2.888 70.9794 1.04 75.4914 1.04ZM75.4914 2.648C72.1794 2.648 69.9234 3.872 69.9234 5.792C69.9234 7.712 72.1794 8.936 75.4914 8.936C78.8034 8.936 81.0354 7.712 81.0354 5.792C81.0354 3.872 78.8034 2.648 75.4914 2.648ZM103.594 0.151999H105.586V21.896H103.594V0.151999ZM89.0496 15.008H90.8496C94.4736 15.008 97.7136 14.864 101.554 14.24L101.77 15.872C97.8336 16.52 94.5696 16.664 90.8496 16.664H89.0496V15.008ZM89.0016 2.192H99.0336V9.944H91.0416V15.632H89.0496V8.312H97.0176V3.824H89.0016V2.192ZM116.63 10.856H136.238V12.488H116.63V10.856ZM125.438 7.376H127.406V11.528H125.438V7.376ZM119.102 6.752H133.958V8.384H119.102V6.752ZM119.102 1.16H133.79V2.768H121.07V7.712H119.102V1.16ZM126.398 14.048C131.03 14.048 133.838 15.464 133.838 17.936C133.838 20.456 131.03 21.848 126.398 21.848C121.766 21.848 118.958 20.456 118.958 17.936C118.958 15.464 121.766 14.048 126.398 14.048ZM126.398 15.584C123.014 15.584 120.974 16.448 120.974 17.936C120.974 19.448 123.014 20.288 126.398 20.288C129.806 20.288 131.822 19.448 131.822 17.936C131.822 16.448 129.806 15.584 126.398 15.584ZM139.74 2.504H141.708V15.224H139.74V2.504ZM139.74 14.648H141.132C143.652 14.648 146.004 14.528 148.74 13.976L149.004 15.68C146.172 16.256 143.748 16.376 141.132 16.376H139.74V14.648ZM155.22 0.175999H157.14V21.872H155.22V0.175999ZM145.764 7.448H151.188V9.104H145.764V7.448ZM150.636 0.679998H152.508V20.768H150.636V0.679998ZM168.088 8.888H169.048C170.32 8.888 171.928 8.84 173.8 8.432L174.016 10.016C172 10.448 170.392 10.472 169.048 10.472H168.088V8.888ZM168.088 1.448H173.512V3.032H170.056V9.896H168.088V1.448ZM174.76 8.888H175.84C178.144 8.888 179.704 8.84 181.552 8.408L181.744 9.992C179.8 10.424 178.216 10.472 175.84 10.472H174.76V8.888ZM174.76 1.448H180.736V3.032H176.704V9.896H174.76V1.448ZM171.064 12.464H185.608V17.648H173.128V20.792H171.112V16.16H183.616V14.048H171.064V12.464ZM171.112 20H186.376V21.584H171.112V20ZM183.616 0.175999H185.608V11.36H183.616V0.175999ZM179.632 4.928H185.056V6.464H179.632V4.928ZM205.358 0.151999H207.35V21.896H205.358V0.151999ZM195.902 1.832C199.118 1.832 201.422 4.784 201.422 9.392C201.422 14.024 199.118 16.976 195.902 16.976C192.71 16.976 190.406 14.024 190.406 9.392C190.406 4.784 192.71 1.832 195.902 1.832ZM195.902 3.632C193.79 3.632 192.302 5.888 192.302 9.392C192.302 12.92 193.79 15.224 195.902 15.224C198.038 15.224 199.502 12.92 199.502 9.392C199.502 5.888 198.038 3.632 195.902 3.632ZM234.93 0.175999H236.85V21.872H234.93V0.175999ZM227.034 7.952H231.186V9.608H227.034V7.952ZM230.586 0.679998H232.458V20.768H230.586V0.679998ZM222.858 3.536H224.394V6.296C224.394 11.048 222.57 15.536 219.378 17.552L218.154 16.064C221.178 14.24 222.858 10.28 222.858 6.296V3.536ZM223.266 3.536H224.802V6.296C224.802 10.064 226.434 13.832 229.41 15.56L228.186 17.024C225.018 15.104 223.266 10.832 223.266 6.296V3.536ZM218.754 2.696H228.666V4.352H218.754V2.696ZM249.328 11.696H251.296V15.44H249.328V11.696ZM240.496 10.64H260.104V12.272H240.496V10.64ZM242.32 0.847999H258.256V2.48H242.32V0.847999ZM242.416 7.016H258.16V8.648H242.416V7.016ZM245.608 1.568H247.6V8.072H245.608V1.568ZM253 1.568H254.968V8.072H253V1.568ZM242.896 14.792H257.704V21.584H242.896V14.792ZM255.76 16.376H244.864V19.976H255.76V16.376ZM272.39 0.535999C277.166 0.535999 280.022 1.88 280.022 4.304C280.022 6.728 277.166 8.072 272.39 8.072C267.59 8.072 264.758 6.728 264.758 4.304C264.758 1.88 267.59 0.535999 272.39 0.535999ZM272.39 2.048C268.838 2.048 266.798 2.864 266.798 4.304C266.798 5.744 268.838 6.56 272.39 6.56C275.918 6.56 277.958 5.744 277.958 4.304C277.958 2.864 275.918 2.048 272.39 2.048ZM262.574 9.512H282.182V11.12H262.574V9.512ZM264.95 12.968H279.686V17.864H266.966V20.504H264.998V16.424H277.718V14.504H264.95V12.968ZM264.998 20.072H280.334V21.632H264.998V20.072ZM0.340781 31.336H10.3008V45.376H0.340781V31.336ZM8.35678 32.944H2.28478V43.768H8.35678V32.944ZM14.1648 29.176H16.1808V50.872H14.1648V29.176ZM15.7008 37.84H19.7328V39.52H15.7008V37.84ZM36.4109 29.176H38.4029V41.464H36.4109V29.176ZM37.8509 34.456H41.6189V36.112H37.8509V34.456ZM30.4109 30.568H32.5229C32.5229 36.04 28.7069 39.976 22.3229 41.704L21.5549 40.12C27.1709 38.584 30.4109 35.44 30.4109 31.456V30.568ZM22.4909 30.568H31.5149V32.176H22.4909V30.568ZM24.7469 42.496H38.4029V50.584H24.7469V42.496ZM36.4349 44.104H26.7149V48.952H36.4349V44.104ZM61.903 35.152H67.375V36.784H61.903V35.152ZM66.247 29.2H68.239V45.088H66.247V29.2ZM54.391 48.76H68.839V50.392H54.391V48.76ZM54.391 43.696H56.383V49.6H54.391V43.696ZM55.927 31.888H57.559V33.64C57.559 37.576 55.111 40.984 51.487 42.328L50.455 40.744C53.695 39.592 55.927 36.712 55.927 33.64V31.888ZM56.311 31.888H57.919V33.616C57.919 36.424 60.031 39.16 63.175 40.264L62.167 41.824C58.639 40.552 56.311 37.288 56.311 33.616V31.888ZM51.079 30.952H62.671V32.56H51.079V30.952ZM81.2692 37.6H85.3732V39.256H81.2692V37.6ZM88.9972 29.176H90.9172V50.872H88.9972V29.176ZM84.7012 29.632H86.5972V49.792H84.7012V29.632ZM77.3572 30.976C80.1652 30.976 81.9892 33.88 81.9892 38.536C81.9892 43.192 80.1652 46.096 77.3572 46.096C74.5492 46.096 72.7492 43.192 72.7492 38.536C72.7492 33.88 74.5492 30.976 77.3572 30.976ZM77.3572 32.824C75.6532 32.824 74.5732 35.032 74.5732 38.536C74.5732 42.04 75.6532 44.248 77.3572 44.248C79.0852 44.248 80.1652 42.04 80.1652 38.536C80.1652 35.032 79.0852 32.824 77.3572 32.824ZM107.817 39.256H109.785V43.336H107.817V39.256ZM104.697 42.712H106.689V45.04H116.985V42.712H118.953V50.584H104.697V42.712ZM106.689 46.6V48.976H116.985V46.6H106.689ZM116.961 29.176H118.953V41.632H116.961V29.176ZM101.601 40.312L101.337 38.68C105.393 38.68 110.793 38.656 115.521 38.032L115.665 39.472C110.817 40.288 105.561 40.312 101.601 40.312ZM107.553 29.704H109.161V30.784C109.161 33.928 106.785 36.4 103.161 37.312L102.273 35.8C105.441 35.032 107.553 33.064 107.553 30.784V29.704ZM107.985 29.704H109.617V30.784C109.617 32.992 111.753 34.816 114.849 35.464L114.009 37C110.409 36.16 107.985 33.832 107.985 30.784V29.704ZM139.903 29.176H141.823V50.872H139.903V29.176ZM130.495 38.032H135.967V39.64H130.495V38.032ZM135.391 29.728H137.263V49.768H135.391V29.728ZM130.759 31.912H132.679C132.679 37.6 130.399 42.712 124.543 46.192L123.367 44.776C128.479 41.704 130.759 37.384 130.759 32.272V31.912ZM124.327 31.912H131.503V33.544H124.327V31.912ZM152.868 31.192H164.46V32.824H152.868V31.192ZM152.508 41.944L152.268 40.264C156.06 40.24 161.22 40.192 165.468 39.664L165.612 41.152C161.292 41.824 156.204 41.944 152.508 41.944ZM155.004 32.416H156.924V40.6H155.004V32.416ZM160.38 32.416H162.3V40.6H160.38V32.416ZM167.052 29.2H169.044V45.184H167.052V29.2ZM168.42 35.776H172.26V37.456H168.42V35.776ZM155.532 48.76H170.028V50.392H155.532V48.76ZM155.532 43.648H157.524V49.192H155.532V43.648ZM190.81 29.176H192.73V50.872H190.81V29.176ZM187.378 37.768H191.53V39.4H187.378V37.768ZM186.01 29.632H187.906V49.792H186.01V29.632ZM175.066 31.672H183.346V45.064H175.066V31.672ZM181.474 33.256H176.938V43.48H181.474V33.256ZM209.937 30.7273L204.312 51.625H202.471L208.096 30.7273H209.937ZM220.878 30.592H234.438V32.2H220.878V30.592ZM218.43 39.904H238.038V41.536H218.43V39.904ZM227.19 40.984H229.182V50.896H227.19V40.984ZM233.502 30.592H235.446V32.464C235.446 34.72 235.446 37.264 234.63 40.936L232.662 40.672C233.502 37.168 233.502 34.648 233.502 32.464V30.592ZM257.021 29.176H258.941V50.872H257.021V29.176ZM253.589 37.768H257.741V39.4H253.589V37.768ZM252.221 29.632H254.117V49.792H252.221V29.632ZM241.277 31.672H249.557V45.064H241.277V31.672ZM247.685 33.256H243.149V43.48H247.685V33.256ZM262.539 32.872H273.291V34.504H262.539V32.872ZM267.915 35.944C270.627 35.944 272.595 37.984 272.595 40.912C272.595 43.816 270.627 45.856 267.915 45.856C265.227 45.856 263.259 43.816 263.259 40.912C263.259 37.984 265.227 35.944 267.915 35.944ZM267.915 37.648C266.259 37.648 265.059 38.992 265.059 40.912C265.059 42.832 266.259 44.176 267.915 44.176C269.595 44.176 270.819 42.832 270.819 40.912C270.819 38.992 269.595 37.648 267.915 37.648ZM279.027 29.176H280.947V50.872H279.027V29.176ZM275.571 38.296H279.675V39.952H275.571V38.296ZM274.395 29.656H276.267V49.816H274.395V29.656ZM266.955 29.8H268.923V33.88H266.955V29.8ZM284.665 46.456H304.321V48.112H284.665V46.456ZM293.449 41.272H295.441V46.936H293.449V41.272ZM286.969 30.712H288.937V34.576H300.001V30.712H301.969V41.8H286.969V30.712ZM288.937 36.184V40.168H300.001V36.184H288.937ZM315.287 36.928H319.439V38.584H315.287V36.928ZM311.231 31.216H312.791V35.344C312.791 39.88 310.895 44.272 307.727 46.216L306.479 44.704C309.455 42.952 311.231 39.064 311.231 35.344V31.216ZM311.615 31.216H313.151V35.272C313.151 38.752 314.783 42.448 317.639 44.176L316.487 45.736C313.367 43.816 311.615 39.496 311.615 35.272V31.216ZM323.255 29.176H325.175V50.872H323.255V29.176ZM318.863 29.632H320.735V49.792H318.863V29.632ZM333.621 40.336H335.589V46.84H333.621V40.336ZM341.637 40.336H343.629V46.84H341.637V40.336ZM328.821 46.456H348.477V48.112H328.821V46.456ZM338.613 30.544C343.197 30.544 346.485 32.728 346.485 36.136C346.485 39.52 343.197 41.704 338.613 41.704C334.005 41.704 330.717 39.52 330.717 36.136C330.717 32.728 334.005 30.544 338.613 30.544ZM338.613 32.128C335.133 32.128 332.637 33.712 332.637 36.136C332.637 38.536 335.133 40.12 338.613 40.12C342.093 40.12 344.565 38.536 344.565 36.136C344.565 33.712 342.093 32.128 338.613 32.128Z" fill="white"/>
</svg>
