<svg width="336" height="124" viewBox="0 0 336 124" fill="none" xmlns="http://www.w3.org/2000/svg">
<rect width="336" height="56" rx="15" fill="white"/>
<path d="M92.68 20.26H102.56V22.4H92.68V20.26ZM92.48 29.94L92.2 27.8C95.34 27.78 99.64 27.74 103.2 27.28L103.38 29.22C99.74 29.86 95.54 29.94 92.48 29.94ZM94.14 21.9H96.7V28.2H94.14V21.9ZM98.56 21.9H101.1V28.2H98.56V21.9ZM104.22 18.78H106.88V32.42H104.22V18.78ZM106.12 23.98H109.34V26.18H106.12V23.98ZM94.94 34.84H107.54V36.96H94.94V34.84ZM94.94 31.14H97.6V35.4H94.94V31.14ZM124.078 18.76H126.618V37.28H124.078V18.76ZM121.858 25.82H124.918V27.96H121.858V25.82ZM120.018 19.04H122.518V36.44H120.018V19.04ZM111.218 20.66H118.538V32.66H111.218V20.66ZM116.058 22.74H113.698V30.58H116.058V22.74ZM133.257 21.68H135.357V23.76C135.357 27.94 133.597 32.2 130.197 33.8L128.697 31.7C131.757 30.26 133.257 26.8 133.257 23.76V21.68ZM133.817 21.68H135.917V23.76C135.917 26.56 137.357 29.84 140.397 31.24L138.937 33.34C135.537 31.76 133.817 27.7 133.817 23.76V21.68ZM129.417 20.54H139.577V22.72H129.417V20.54ZM140.937 18.76H143.617V37.28H140.937V18.76ZM143.017 25.82H146.297V28.02H143.017V25.82ZM147.515 33.08H164.275V35.24H147.515V33.08ZM154.535 29.58H157.195V33.96H154.535V29.58ZM149.395 19.96H162.395V26.12H152.075V29.24H149.435V24.04H159.755V22.06H149.395V19.96ZM149.435 28.18H162.815V30.32H149.435V28.18ZM175.609 20.18H177.769V22.88C177.769 27.64 176.129 31.94 172.449 33.64L170.869 31.44C174.089 30.04 175.609 26.48 175.609 22.88V20.18ZM176.129 20.18H178.289V22.88C178.289 26.3 179.749 29.7 182.909 31.06L181.349 33.2C177.769 31.56 176.129 27.44 176.129 22.88V20.18ZM183.789 18.74H186.469V37.32H183.789V18.74ZM193.608 20.66H195.788V21.82C195.788 25.32 194.128 28.46 190.588 29.6L189.208 27.54C192.308 26.54 193.608 24.14 193.608 21.82V20.66ZM194.148 20.66H196.308V21.82C196.308 24 197.568 26.26 200.568 27.22L199.208 29.28C195.748 28.16 194.148 25.14 194.148 21.82V20.66ZM189.928 19.84H199.928V21.96H189.928V19.84ZM201.408 18.76H204.068V29.92H201.408V18.76ZM203.328 23.24H206.528V25.42H203.328V23.24ZM191.708 30.72H204.068V37.28H201.408V32.86H191.708V30.72ZM219.766 18.76H222.406V37.28H219.766V18.76ZM221.806 25.98H225.086V28.2H221.806V25.98ZM207.806 21.5H218.586V23.62H207.806V21.5ZM213.226 24.66C215.926 24.66 217.926 26.5 217.926 29.08C217.926 31.66 215.926 33.5 213.226 33.5C210.526 33.5 208.526 31.66 208.526 29.08C208.526 26.5 210.526 24.66 213.226 24.66ZM213.226 26.82C211.966 26.82 211.066 27.66 211.066 29.08C211.066 30.5 211.966 31.34 213.226 31.34C214.486 31.34 215.386 30.5 215.386 29.08C215.386 27.66 214.486 26.82 213.226 26.82ZM211.886 19.06H214.546V22.3H211.886V19.06ZM239.044 18.76H241.724V37.28H239.044V18.76ZM233.584 20.68H236.224C236.224 26.34 234.304 30.98 227.724 34.16L226.344 32.04C231.664 29.48 233.584 26.12 233.584 21.16V20.68ZM227.324 20.68H234.844V22.78H227.324V20.68Z" fill="#D94844"/>
<rect y="68" width="336" height="56" rx="15" fill="white"/>
<path d="M94.22 87.84H105.84V89.94H94.22V87.84ZM92.32 95.72H109.06V97.86H92.32V95.72ZM99.26 97.22H101.94V105.3H99.26V97.22ZM104.48 87.84H107.1V89.48C107.1 91.48 107.1 93.72 106.38 97L103.76 96.7C104.48 93.6 104.48 91.4 104.48 89.48V87.84ZM124.078 86.76H126.618V105.28H124.078V86.76ZM121.858 93.82H124.918V95.96H121.858V93.82ZM120.018 87.04H122.518V104.44H120.018V87.04ZM111.218 88.66H118.538V100.66H111.218V88.66ZM116.058 90.74H113.698V98.58H116.058V90.74ZM133.257 89.68H135.357V91.76C135.357 95.94 133.597 100.2 130.197 101.8L128.697 99.7C131.757 98.26 133.257 94.8 133.257 91.76V89.68ZM133.817 89.68H135.917V91.76C135.917 94.56 137.357 97.84 140.397 99.24L138.937 101.34C135.537 99.76 133.817 95.7 133.817 91.76V89.68ZM129.417 88.54H139.577V90.72H129.417V88.54ZM140.937 86.76H143.617V105.28H140.937V86.76ZM143.017 93.82H146.297V96.02H143.017V93.82ZM147.515 101.08H164.275V103.24H147.515V101.08ZM154.535 97.58H157.195V101.96H154.535V97.58ZM149.395 87.96H162.395V94.12H152.075V97.24H149.435V92.04H159.755V90.06H149.395V87.96ZM149.435 96.18H162.815V98.32H149.435V96.18ZM175.609 88.18H177.769V90.88C177.769 95.64 176.129 99.94 172.449 101.64L170.869 99.44C174.089 98.04 175.609 94.48 175.609 90.88V88.18ZM176.129 88.18H178.289V90.88C178.289 94.3 179.749 97.7 182.909 99.06L181.349 101.2C177.769 99.56 176.129 95.44 176.129 90.88V88.18ZM183.789 86.74H186.469V105.32H183.789V86.74ZM193.608 88.66H195.788V89.82C195.788 93.32 194.128 96.46 190.588 97.6L189.208 95.54C192.308 94.54 193.608 92.14 193.608 89.82V88.66ZM194.148 88.66H196.308V89.82C196.308 92 197.568 94.26 200.568 95.22L199.208 97.28C195.748 96.16 194.148 93.14 194.148 89.82V88.66ZM189.928 87.84H199.928V89.96H189.928V87.84ZM201.408 86.76H204.068V97.92H201.408V86.76ZM203.328 91.24H206.528V93.42H203.328V91.24ZM191.708 98.72H204.068V105.28H201.408V100.86H191.708V98.72ZM219.766 86.76H222.406V105.28H219.766V86.76ZM221.806 93.98H225.086V96.2H221.806V93.98ZM207.806 89.5H218.586V91.62H207.806V89.5ZM213.226 92.66C215.926 92.66 217.926 94.5 217.926 97.08C217.926 99.66 215.926 101.5 213.226 101.5C210.526 101.5 208.526 99.66 208.526 97.08C208.526 94.5 210.526 92.66 213.226 92.66ZM213.226 94.82C211.966 94.82 211.066 95.66 211.066 97.08C211.066 98.5 211.966 99.34 213.226 99.34C214.486 99.34 215.386 98.5 215.386 97.08C215.386 95.66 214.486 94.82 213.226 94.82ZM211.886 87.06H214.546V90.3H211.886V87.06ZM239.044 86.76H241.724V105.28H239.044V86.76ZM233.584 88.68H236.224C236.224 94.34 234.304 98.98 227.724 102.16L226.344 100.04C231.664 97.48 233.584 94.12 233.584 89.16V88.68ZM227.324 88.68H234.844V90.78H227.324V88.68Z" fill="#D94844"/>
</svg>
