<svg width="283" height="90" viewBox="0 0 283 90" fill="none" xmlns="http://www.w3.org/2000/svg">
<path d="M6.336 9.936H9.528V13.8H6.336V9.936ZM16.488 0.912H19.68V13.776H16.488V0.912ZM1.32 10.92L0.984 8.712C5.256 8.712 10.512 8.712 15.192 8.256L15.36 10.224C10.536 10.896 5.472 10.944 1.32 10.92ZM4.128 14.448H19.68V19.656H7.32V21.408H4.176V17.664H16.512V16.608H4.128V14.448ZM4.176 20.808H20.184V22.992H4.176V20.808ZM12.552 11.208H17.472V13.104H12.552V11.208ZM8.04 1.224C11.352 1.224 13.584 2.544 13.584 4.56C13.584 6.6 11.352 7.896 8.04 7.896C4.704 7.896 2.472 6.6 2.472 4.56C2.472 2.544 4.704 1.224 8.04 1.224ZM8.04 3.312C6.432 3.312 5.448 3.744 5.448 4.56C5.448 5.376 6.432 5.784 8.04 5.784C9.624 5.784 10.608 5.376 10.608 4.56C10.608 3.744 9.624 3.312 8.04 3.312ZM38.2266 21H34.6055V11.0859C34.6055 10.8125 34.6094 10.4766 34.6172 10.0781C34.625 9.67188 34.6367 9.25781 34.6523 8.83594C34.668 8.40625 34.6836 8.01953 34.6992 7.67578C34.6133 7.77734 34.4375 7.95312 34.1719 8.20312C33.9141 8.44531 33.6719 8.66406 33.4453 8.85938L31.4766 10.4414L29.7305 8.26172L35.25 3.86719H38.2266V21ZM54.9844 21H43.0078V18.4805L47.3086 14.1328C48.1758 13.2422 48.8711 12.5 49.3945 11.9062C49.9258 11.3047 50.3086 10.7578 50.543 10.2656C50.7852 9.77344 50.9062 9.24609 50.9062 8.68359C50.9062 8.00391 50.7148 7.49609 50.332 7.16016C49.957 6.81641 49.4531 6.64453 48.8203 6.64453C48.1562 6.64453 47.5117 6.79688 46.8867 7.10156C46.2617 7.40625 45.6094 7.83984 44.9297 8.40234L42.9609 6.07031C43.4531 5.64844 43.9727 5.25 44.5195 4.875C45.0742 4.5 45.7148 4.19922 46.4414 3.97266C47.1758 3.73828 48.0547 3.62109 49.0781 3.62109C50.2031 3.62109 51.168 3.82422 51.9727 4.23047C52.7852 4.63672 53.4102 5.19141 53.8477 5.89453C54.2852 6.58984 54.5039 7.37891 54.5039 8.26172C54.5039 9.20703 54.3164 10.0703 53.9414 10.8516C53.5664 11.6328 53.0195 12.4062 52.3008 13.1719C51.5898 13.9375 50.7305 14.7852 49.7227 15.7148L47.5195 17.7891V17.9531H54.9844V21ZM60.9844 18.2109L61.1602 18.4805C61.0195 19.043 60.8359 19.6484 60.6094 20.2969C60.3906 20.9453 60.1484 21.5938 59.8828 22.2422C59.625 22.8906 59.3633 23.5078 59.0977 24.0938H56.5195C56.6758 23.4609 56.8281 22.7969 56.9766 22.1016C57.125 21.4062 57.2617 20.7227 57.3867 20.0508C57.5195 19.3789 57.625 18.7656 57.7031 18.2109H60.9844ZM75.4922 11.1797C75.4922 12.1641 75.418 13.1406 75.2695 14.1094C75.1289 15.0781 74.8789 15.9922 74.5195 16.8516C74.1602 17.7031 73.6562 18.4609 73.0078 19.125C72.3594 19.7812 71.5352 20.2969 70.5352 20.6719C69.5352 21.0469 68.3242 21.2344 66.9023 21.2344C66.5664 21.2344 66.1719 21.2188 65.7188 21.1875C65.2656 21.1641 64.8906 21.125 64.5938 21.0703V18.1641C64.9062 18.2422 65.2383 18.3047 65.5898 18.3516C65.9414 18.3906 66.2969 18.4102 66.6562 18.4102C68.0859 18.4102 69.1875 18.1836 69.9609 17.7305C70.7422 17.2773 71.2891 16.6484 71.6016 15.8438C71.9219 15.0391 72.1055 14.1094 72.1523 13.0547H72.0117C71.7852 13.4297 71.5156 13.7695 71.2031 14.0742C70.8984 14.3711 70.5078 14.6094 70.0312 14.7891C69.5547 14.9609 68.9492 15.0469 68.2148 15.0469C67.2383 15.0469 66.3867 14.8359 65.6602 14.4141C64.9414 13.9844 64.3828 13.3672 63.9844 12.5625C63.5938 11.75 63.3984 10.7695 63.3984 9.62109C63.3984 8.37891 63.6328 7.31641 64.1016 6.43359C64.5781 5.54297 65.2539 4.85938 66.1289 4.38281C67.0039 3.90625 68.0352 3.66797 69.2227 3.66797C70.0977 3.66797 70.9141 3.82031 71.6719 4.125C72.4297 4.42188 73.0938 4.87891 73.6641 5.49609C74.2422 6.11328 74.6914 6.89453 75.0117 7.83984C75.332 8.78516 75.4922 9.89844 75.4922 11.1797ZM69.293 6.57422C68.5898 6.57422 68.0156 6.81641 67.5703 7.30078C67.125 7.78516 66.9023 8.54297 66.9023 9.57422C66.9023 10.4023 67.0938 11.0586 67.4766 11.543C67.8594 12.0273 68.4414 12.2695 69.2227 12.2695C69.7617 12.2695 70.2305 12.1523 70.6289 11.918C71.0273 11.6758 71.3359 11.375 71.5547 11.0156C71.7812 10.6484 71.8945 10.2734 71.8945 9.89062C71.8945 9.49219 71.8398 9.09766 71.7305 8.70703C71.6211 8.31641 71.457 7.96094 71.2383 7.64062C71.0195 7.32031 70.7461 7.0625 70.418 6.86719C70.0977 6.67188 69.7227 6.57422 69.293 6.57422ZM89.2031 12.4336C89.2031 13.8164 89.0938 15.0508 88.875 16.1367C88.6641 17.2227 88.3203 18.1445 87.8438 18.9023C87.375 19.6602 86.7578 20.2383 85.9922 20.6367C85.2266 21.0352 84.2969 21.2344 83.2031 21.2344C81.8281 21.2344 80.6992 20.8867 79.8164 20.1914C78.9336 19.4883 78.2812 18.4805 77.8594 17.168C77.4375 15.8477 77.2266 14.2695 77.2266 12.4336C77.2266 10.582 77.418 9 77.8008 7.6875C78.1914 6.36719 78.8242 5.35547 79.6992 4.65234C80.5742 3.94922 81.7422 3.59766 83.2031 3.59766C84.5703 3.59766 85.6953 3.94922 86.5781 4.65234C87.4688 5.34766 88.1289 6.35547 88.5586 7.67578C88.9883 8.98828 89.2031 10.5742 89.2031 12.4336ZM80.8242 12.4336C80.8242 13.7383 80.8945 14.8281 81.0352 15.7031C81.1836 16.5703 81.4297 17.2227 81.7734 17.6602C82.1172 18.0977 82.5938 18.3164 83.2031 18.3164C83.8047 18.3164 84.2773 18.1016 84.6211 17.6719C84.9727 17.2344 85.2227 16.582 85.3711 15.7148C85.5195 14.8398 85.5938 13.7461 85.5938 12.4336C85.5938 11.1289 85.5195 10.0391 85.3711 9.16406C85.2227 8.28906 84.9727 7.63281 84.6211 7.19531C84.2773 6.75 83.8047 6.52734 83.2031 6.52734C82.5938 6.52734 82.1172 6.75 81.7734 7.19531C81.4297 7.63281 81.1836 8.28906 81.0352 9.16406C80.8945 10.0391 80.8242 11.1289 80.8242 12.4336ZM102.938 12.4336C102.938 13.8164 102.828 15.0508 102.609 16.1367C102.398 17.2227 102.055 18.1445 101.578 18.9023C101.109 19.6602 100.492 20.2383 99.7266 20.6367C98.9609 21.0352 98.0312 21.2344 96.9375 21.2344C95.5625 21.2344 94.4336 20.8867 93.5508 20.1914C92.668 19.4883 92.0156 18.4805 91.5938 17.168C91.1719 15.8477 90.9609 14.2695 90.9609 12.4336C90.9609 10.582 91.1523 9 91.5352 7.6875C91.9258 6.36719 92.5586 5.35547 93.4336 4.65234C94.3086 3.94922 95.4766 3.59766 96.9375 3.59766C98.3047 3.59766 99.4297 3.94922 100.312 4.65234C101.203 5.34766 101.863 6.35547 102.293 7.67578C102.723 8.98828 102.938 10.5742 102.938 12.4336ZM94.5586 12.4336C94.5586 13.7383 94.6289 14.8281 94.7695 15.7031C94.918 16.5703 95.1641 17.2227 95.5078 17.6602C95.8516 18.0977 96.3281 18.3164 96.9375 18.3164C97.5391 18.3164 98.0117 18.1016 98.3555 17.6719C98.707 17.2344 98.957 16.582 99.1055 15.7148C99.2539 14.8398 99.3281 13.7461 99.3281 12.4336C99.3281 11.1289 99.2539 10.0391 99.1055 9.16406C98.957 8.28906 98.707 7.63281 98.3555 7.19531C98.0117 6.75 97.5391 6.52734 96.9375 6.52734C96.3281 6.52734 95.8516 6.75 95.5078 7.19531C95.1641 7.63281 94.918 8.28906 94.7695 9.16406C94.6289 10.0391 94.5586 11.1289 94.5586 12.4336ZM110.572 12.312H113.764V17.184H110.572V12.312ZM120.316 0.912H123.508V17.736H120.316V0.912ZM107.5 20.208H123.988V22.752H107.5V20.208ZM107.5 16.152H110.692V20.88H107.5V16.152ZM105.1 13.272L104.716 10.728C108.772 10.728 114.196 10.68 118.852 10.08L119.044 12.36C114.316 13.152 109.108 13.272 105.1 13.272ZM116.116 13.824H121.012V16.008H116.116V13.824ZM111.868 1.68C115.108 1.68 117.388 3.288 117.388 5.64C117.388 8.016 115.108 9.6 111.868 9.6C108.604 9.6 106.324 8.016 106.324 5.64C106.324 3.288 108.604 1.68 111.868 1.68ZM111.868 4.008C110.38 4.008 109.348 4.56 109.348 5.64C109.348 6.72 110.38 7.272 111.868 7.272C113.332 7.272 114.364 6.72 114.364 5.64C114.364 4.56 113.332 4.008 111.868 4.008ZM136.922 2.016C141.602 2.016 145.226 4.584 145.226 8.448C145.226 12.336 141.602 14.88 136.922 14.88C132.242 14.88 128.618 12.336 128.618 8.448C128.618 4.584 132.242 2.016 136.922 2.016ZM136.922 4.608C133.898 4.608 131.738 6.048 131.738 8.448C131.738 10.824 133.898 12.264 136.922 12.264C139.946 12.264 142.106 10.824 142.106 8.448C142.106 6.048 139.946 4.608 136.922 4.608ZM126.89 17.856H147.002V20.472H126.89V17.856ZM148.968 18.096H169.08V20.688H148.968V18.096ZM157.392 13.896H160.584V19.152H157.392V13.896ZM151.224 2.352H166.824V9.744H154.44V13.488H151.272V7.248H163.656V4.872H151.224V2.352ZM151.272 12.216H167.328V14.784H151.272V12.216ZM15.264 33.912H18.456V46.44H15.264V33.912ZM17.592 38.592H21.408V41.184H17.592V38.592ZM3.984 47.448H18.456V55.896H3.984V47.448ZM15.336 49.944H7.128V53.376H15.336V49.944ZM1.848 34.968H5.04V44.064H1.848V34.968ZM1.848 42.696H3.72C6.744 42.696 10.032 42.48 13.536 41.808L13.896 44.376C10.272 45.12 6.864 45.312 3.72 45.312H1.848V42.696ZM23.0381 45.24H43.1261V47.784H23.0381V45.24ZM25.4621 53.208H40.8701V55.752H25.4621V53.208ZM25.4621 49.272H28.6541V54.024H25.4621V49.272ZM33.0941 34.56C37.9181 34.56 41.1341 36.312 41.1341 39.144C41.1341 41.976 37.9181 43.728 33.0941 43.728C28.2461 43.728 25.0541 41.976 25.0541 39.144C25.0541 36.312 28.2461 34.56 33.0941 34.56ZM33.0941 37.104C30.0941 37.104 28.3421 37.8 28.3421 39.144C28.3421 40.512 30.0941 41.184 33.0941 41.184C36.0941 41.184 37.8461 40.512 37.8461 39.144C37.8461 37.8 36.0941 37.104 33.0941 37.104ZM56.5586 34.92H59.1986V37.056C59.1986 41.256 57.1586 45.072 52.8146 46.464L51.2546 43.944C54.9986 42.744 56.5586 39.864 56.5586 37.056V34.92ZM57.2066 34.92H59.8226V37.056C59.8226 39.792 61.3586 42.48 64.9826 43.584L63.4226 46.08C59.1746 44.736 57.2066 41.184 57.2066 37.056V34.92ZM54.6626 48.144H69.8306V56.136H66.6146V50.688H54.6626V48.144ZM66.6146 33.912H69.8306V47.16H66.6146V33.912ZM81.8768 46.128H85.0688V49.512H81.8768V46.128ZM73.4288 44.304H93.5168V46.824H73.4288V44.304ZM75.1808 34.512H91.7408V37.056H75.1808V34.512ZM75.3488 40.392H91.5728V42.936H75.3488V40.392ZM78.0128 35.448H81.2048V42.048H78.0128V35.448ZM85.7168 35.448H88.9088V42.048H85.7168V35.448ZM75.7568 48.672H91.1168V55.896H75.7568V48.672ZM87.9968 51.144H78.9008V53.376H87.9968V51.144ZM105.563 34.224C110.627 34.224 113.603 35.568 113.603 38.016C113.603 40.464 110.627 41.808 105.563 41.808C100.475 41.808 97.5229 40.464 97.5229 38.016C97.5229 35.568 100.475 34.224 105.563 34.224ZM105.563 36.552C102.347 36.552 100.835 37.032 100.835 38.016C100.835 39.048 102.347 39.48 105.563 39.48C108.779 39.48 110.291 39.048 110.291 38.016C110.291 37.032 108.779 36.552 105.563 36.552ZM95.5069 42.84H115.595V45.36H95.5069V42.84ZM97.8109 46.608H113.171V52.32H100.979V54.288H97.8349V50.112H110.027V48.984H97.8109V46.608ZM97.8349 53.592H113.747V55.992H97.8349V53.592ZM126.243 53.208H141.651V55.752H126.243V53.208ZM126.243 49.32H129.435V54.072H126.243V49.32ZM123.819 45.432H143.931V47.976H123.819V45.432ZM132.243 42.336H135.411V46.416H132.243V42.336ZM132.195 34.536H134.931V35.208C134.931 39.408 131.715 42.792 126.075 43.68L124.851 41.184C129.819 40.488 132.195 37.8 132.195 35.208V34.536ZM132.723 34.536H135.459V35.208C135.459 37.92 137.787 40.512 142.803 41.184L141.579 43.68C135.939 42.744 132.723 39.528 132.723 35.208V34.536ZM151.993 44.304H155.162V48.096H151.993V44.304ZM149.21 47.664H152.378V49.488H161.258V47.664H164.426V55.896H149.21V47.664ZM152.378 51.888V53.4H161.258V51.888H152.378ZM161.234 33.912H164.426V46.728H161.234V33.912ZM146.306 45.792L145.946 43.272C150.026 43.272 155.378 43.248 160.058 42.648L160.25 44.904C155.474 45.744 150.314 45.792 146.306 45.792ZM151.73 34.488H154.274V35.352C154.274 38.712 152.282 41.472 148.058 42.384L146.69 39.984C150.218 39.24 151.73 37.344 151.73 35.352V34.488ZM152.474 34.488H155.042V35.352C155.042 37.224 156.578 39 159.986 39.624L158.666 42.048C154.514 41.184 152.474 38.568 152.474 35.352V34.488ZM184.08 33.912H187.128V56.136H184.08V33.912ZM175.272 42.432H180.024V44.952H175.272V42.432ZM179.4 34.392H182.376V55.152H179.4V34.392ZM174.552 36.528H177.624C177.624 42.864 175.728 47.904 169.488 51.528L167.688 49.296C172.752 46.248 174.552 42.552 174.552 37.176V36.528ZM168.936 36.528H175.56V39.072H168.936V36.528ZM196.744 35.712H208.6V38.28H196.744V35.712ZM196.504 47.328L196.168 44.76C199.936 44.736 205.096 44.688 209.368 44.136L209.584 46.464C205.216 47.232 200.176 47.328 196.504 47.328ZM198.496 37.68H201.568V45.24H198.496V37.68ZM203.8 37.68H206.848V45.24H203.8V37.68ZM210.592 33.936H213.784V50.304H210.592V33.936ZM212.872 40.176H216.736V42.816H212.872V40.176ZM199.456 53.208H214.576V55.752H199.456V53.208ZM199.456 48.768H202.648V53.88H199.456V48.768ZM234.422 33.912H237.47V56.136H234.422V33.912ZM231.758 42.384H235.43V44.952H231.758V42.384ZM229.55 34.248H232.55V55.128H229.55V34.248ZM218.99 36.192H227.774V50.592H218.99V36.192ZM224.798 38.688H221.966V48.096H224.798V38.688ZM254.7 33.912H257.868V56.136H254.7V33.912ZM257.148 42.576H261.084V45.24H257.148V42.576ZM240.348 37.2H253.284V39.744H240.348V37.2ZM246.852 40.992C250.092 40.992 252.492 43.2 252.492 46.296C252.492 49.392 250.092 51.6 246.852 51.6C243.612 51.6 241.212 49.392 241.212 46.296C241.212 43.2 243.612 40.992 246.852 40.992ZM246.852 43.584C245.34 43.584 244.26 44.592 244.26 46.296C244.26 48 245.34 49.008 246.852 49.008C248.364 49.008 249.444 48 249.444 46.296C249.444 44.592 248.364 43.584 246.852 43.584ZM245.244 34.272H248.436V38.16H245.244V34.272ZM264.587 35.784H278.675V38.352H264.587V35.784ZM262.547 50.88H282.635V53.472H262.547V50.88ZM269.651 43.248H272.843V52.152H269.651V43.248ZM277.523 35.784H280.715V37.92C280.715 40.704 280.715 43.824 279.827 48.576L276.635 48.216C277.523 43.8 277.523 40.584 277.523 37.92V35.784ZM17.184 66.912H20.208V89.136H17.184V66.912ZM14.52 75.432H18.216V78.024H14.52V75.432ZM12.408 67.248H15.384V88.128H12.408V67.248ZM4.92 70.368H7.344V72.336C7.344 77.832 6.144 82.68 2.448 84.912L0.528 82.464C3.864 80.544 4.92 76.608 4.92 72.336V70.368ZM5.568 70.368H8.016V72.336C8.016 76.248 9.144 79.944 12.456 81.672L10.632 84.096C6.888 82.08 5.568 77.496 5.568 72.336V70.368ZM1.248 69.168H11.352V71.736H1.248V69.168ZM25.1021 68.784H39.1901V71.352H25.1021V68.784ZM23.0621 83.88H43.1501V86.472H23.0621V83.88ZM30.1661 76.248H33.3581V85.152H30.1661V76.248ZM38.0381 68.784H41.2301V70.92C41.2301 73.704 41.2301 76.824 40.3421 81.576L37.1501 81.216C38.0381 76.8 38.0381 73.584 38.0381 70.92V68.784ZM51.3506 79.704H71.4866V82.224H51.3506V79.704ZM59.7506 80.976H62.9186V89.136H59.7506V80.976ZM53.6546 67.752H56.8226V70.272H65.9426V67.752H69.1106V77.592H53.6546V67.752ZM56.8226 72.768V75.048H65.9426V72.768H56.8226ZM87.7328 66.912H90.9248V79.368H87.7328V66.912ZM90.0368 71.904H93.8768V74.496H90.0368V71.904ZM74.2688 76.032H76.1168C80.9408 76.032 83.3408 75.912 86.0048 75.36L86.3168 77.88C83.6048 78.48 81.0608 78.6 76.1168 78.6H74.2688V76.032ZM74.2688 68.28H84.1328V70.824H77.4368V77.52H74.2688V68.28ZM76.4768 80.328H90.9248V88.896H76.4768V80.328ZM87.8048 82.848H79.6208V86.376H87.8048V82.848ZM105.563 67.224C110.627 67.224 113.603 68.568 113.603 71.016C113.603 73.464 110.627 74.808 105.563 74.808C100.475 74.808 97.5229 73.464 97.5229 71.016C97.5229 68.568 100.475 67.224 105.563 67.224ZM105.563 69.552C102.347 69.552 100.835 70.032 100.835 71.016C100.835 72.048 102.347 72.48 105.563 72.48C108.779 72.48 110.291 72.048 110.291 71.016C110.291 70.032 108.779 69.552 105.563 69.552ZM95.5069 75.84H115.595V78.36H95.5069V75.84ZM97.8109 79.608H113.171V85.32H100.979V87.288H97.8349V83.112H110.027V81.984H97.8109V79.608ZM97.8349 86.592H113.747V88.992H97.8349V86.592ZM132.267 77.496H135.459V80.592H132.267V77.496ZM123.819 75.744H143.907V78.24H123.819V75.744ZM126.123 79.632H141.483V85.344H129.291V87.288H126.147V83.16H138.339V81.96H126.123V79.632ZM126.147 86.616H142.059V88.992H126.147V86.616ZM131.955 68.472H134.739V69.024C134.739 72.192 131.595 74.712 125.691 75.144L124.707 72.744C129.771 72.408 131.955 70.632 131.955 69.024V68.472ZM132.987 68.472H135.771V69.024C135.771 70.632 137.955 72.408 143.043 72.744L142.059 75.144C136.155 74.712 132.987 72.216 132.987 69.024V68.472ZM125.643 67.512H142.107V69.984H125.643V67.512ZM161.138 66.888H164.354V89.184H161.138V66.888ZM152.378 68.448C155.738 68.448 158.21 71.52 158.21 76.368C158.21 81.264 155.738 84.336 152.378 84.336C149.018 84.336 146.546 81.264 146.546 76.368C146.546 71.52 149.018 68.448 152.378 68.448ZM152.378 71.352C150.722 71.352 149.594 73.104 149.594 76.368C149.594 79.68 150.722 81.456 152.378 81.456C154.034 81.456 155.138 79.68 155.138 76.368C155.138 73.104 154.034 71.352 152.378 71.352ZM176.736 74.376H180.408V76.968H176.736V74.376ZM171.984 68.832H174.432V72.576C174.432 77.616 173.04 82.536 169.488 84.72L167.568 82.32C170.832 80.304 171.984 76.344 171.984 72.576V68.832ZM172.68 68.832H175.08V72.432C175.08 76.056 176.016 79.752 179.04 81.72L177.312 84.216C173.784 82.032 172.68 77.232 172.68 72.432V68.832ZM184.032 66.912H187.08V89.136H184.032V66.912ZM179.52 67.248H182.496V88.128H179.52V67.248ZM194.494 78.192H197.662V84.432H194.494V78.192ZM202.558 78.192H205.75V84.432H202.558V78.192ZM190.078 83.976H210.19V86.568H190.078V83.976ZM200.11 67.992C204.886 67.992 208.414 70.344 208.414 73.968C208.414 77.592 204.886 79.92 200.11 79.92C195.31 79.92 191.806 77.592 191.806 73.968C191.806 70.344 195.31 67.992 200.11 67.992ZM200.11 70.488C197.014 70.488 194.95 71.76 194.95 73.968C194.95 76.152 197.014 77.448 200.11 77.448C203.206 77.448 205.27 76.152 205.27 73.968C205.27 71.76 203.206 70.488 200.11 70.488ZM216.047 81.3164H213.188L212.59 69.8672H216.645L216.047 81.3164ZM212.543 85.3242C212.543 84.5898 212.742 84.0742 213.141 83.7773C213.547 83.4805 214.035 83.332 214.605 83.332C215.16 83.332 215.637 83.4805 216.035 83.7773C216.441 84.0742 216.645 84.5898 216.645 85.3242C216.645 86.0273 216.441 86.5352 216.035 86.8477C215.637 87.1602 215.16 87.3164 214.605 87.3164C214.035 87.3164 213.547 87.1602 213.141 86.8477C212.742 86.5352 212.543 86.0273 212.543 85.3242Z" fill="#1F1F1F"/>
</svg>
