<svg width="376" height="250" viewBox="0 0 376 250" fill="none" xmlns="http://www.w3.org/2000/svg">
<rect width="376" height="265" rx="15" fill="#D94844"/>
<path d="M88.3661 116.944H90.9341V117.736C90.9341 121.624 88.9661 125.104 84.7421 126.352L83.2301 123.856C86.8301 122.8 88.3661 120.256 88.3661 117.736V116.944ZM88.9661 116.944H91.5581V117.736C91.5581 120.016 93.0941 122.368 96.6461 123.328L95.2061 125.776C90.9581 124.648 88.9661 121.384 88.9661 117.736V116.944ZM83.9981 115.168H95.9261V117.664H83.9981V115.168ZM88.3661 112.84H91.5581V116.224H88.3661V112.84ZM95.3501 118.792H99.5741V121.384H95.3501V118.792ZM98.7821 112.912H101.974V128.032H98.7821V112.912ZM92.9021 126.784H95.6141V127.12C95.6141 130.792 92.5901 134.272 87.0461 135.064L85.8941 132.568C90.5501 131.896 92.9021 129.28 92.9021 127.12V126.784ZM93.4541 126.784H96.1661V127.12C96.1661 129.424 98.4221 131.92 103.198 132.568L101.998 135.064C96.4781 134.248 93.4541 130.96 93.4541 127.12V126.784ZM106.22 120.976H108.068C112.7 120.976 115.22 120.832 118.028 120.256L118.364 122.728C115.508 123.376 112.82 123.472 108.068 123.472H106.22V120.976ZM106.22 114.064H116.156V116.56H109.388V122.368H106.22V114.064ZM119.756 112.912H122.948V123.952H119.756V112.912ZM122.06 117.088H125.9V119.68H122.06V117.088ZM108.26 124.864H122.948V131.008H111.476V133.672H108.308V128.656H119.804V127.36H108.26V124.864ZM108.308 132.376H123.596V134.896H108.308V132.376ZM133.765 125.344H153.901V127.888H133.765V125.344ZM142.165 126.976H145.333V135.136H142.165V126.976ZM136.093 113.992H151.501V122.968H136.093V113.992ZM148.357 116.512H139.237V120.448H148.357V116.512ZM160.955 125.872H164.075V131.104H160.955V125.872ZM167.987 125.848H171.107V131.104H167.987V125.848ZM155.867 130.096H175.979V132.688H155.867V130.096ZM158.123 114.352H173.723V121.72H161.339V125.488H158.171V119.224H170.555V116.872H158.123V114.352ZM158.171 124.144H174.227V126.712H158.171V124.144ZM177.945 130.096H198.057V132.688H177.945V130.096ZM186.369 125.896H189.561V131.152H186.369V125.896ZM180.201 114.352H195.801V121.744H183.417V125.488H180.249V119.248H192.633V116.872H180.201V114.352ZM180.249 124.216H196.305V126.784H180.249V124.216ZM211.657 114.616H214.249V117.856C214.249 123.568 212.281 128.728 207.865 130.768L205.969 128.128C209.833 126.448 211.657 122.176 211.657 117.856V114.616ZM212.281 114.616H214.873V117.856C214.873 121.96 216.625 126.04 220.417 127.672L218.545 130.24C214.249 128.272 212.281 123.328 212.281 117.856V114.616ZM221.473 112.888H224.689V135.184H221.473V112.888ZM233.256 115.192H235.872V116.584C235.872 120.784 233.88 124.552 229.632 125.92L227.976 123.448C231.696 122.248 233.256 119.368 233.256 116.584V115.192ZM233.904 115.192H236.496V116.584C236.496 119.2 238.008 121.912 241.608 123.064L239.976 125.536C235.824 124.192 233.904 120.568 233.904 116.584V115.192ZM228.84 114.208H240.84V116.752H228.84V114.208ZM242.616 112.912H245.808V126.304H242.616V112.912ZM244.92 118.288H248.76V120.904H244.92V118.288ZM230.976 127.264H245.808V135.136H242.616V129.832H230.976V127.264ZM264.646 112.912H267.814V135.136H264.646V112.912ZM267.094 121.576H271.03V124.24H267.094V121.576ZM250.294 116.2H263.23V118.744H250.294V116.2ZM256.798 119.992C260.038 119.992 262.438 122.2 262.438 125.296C262.438 128.392 260.038 130.6 256.798 130.6C253.558 130.6 251.158 128.392 251.158 125.296C251.158 122.2 253.558 119.992 256.798 119.992ZM256.798 122.584C255.286 122.584 254.206 123.592 254.206 125.296C254.206 127 255.286 128.008 256.798 128.008C258.31 128.008 259.39 127 259.39 125.296C259.39 123.592 258.31 122.584 256.798 122.584ZM255.19 113.272H258.382V117.16H255.19V113.272ZM287.78 112.912H290.996V135.136H287.78V112.912ZM281.228 115.216H284.396C284.396 122.008 282.092 127.576 274.196 131.392L272.54 128.848C278.924 125.776 281.228 121.744 281.228 115.792V115.216ZM273.716 115.216H282.74V117.736H273.716V115.216Z" fill="white"/>
</svg>
